# xmcd
#
# Track frame offsets:
#	150
#	14885
#	35352
#	52166
#	68805
#	85545
#	119268
#	137104
#	153779
#	161963
#	173720
#	202105
#	214699
#	233688
#	246930
#	272802
#	287458
#	304399
#	318019
#	333625
#
# Disc length: 4657 seconds
#
# Revision: 0
# Processed by: cddbd v1.4PL0 Copyright (c) Steve Scherf et al.
# Submitted via: EasyCDDAExtractor 5.0.5.1
#
DISCID=25122f14
DTITLE=ROLLING STONES - FORTY LICKS disc1
DYEAR=2002
DGENRE=Blues
TTITLE0=Street Fighting Man
TTITLE1=Gimme Shelter
TTITLE2=(I Can't Get No)Satisfaction
TTITLE3=The Last Time
TTITLE4=Jumpin' Jack Flash
TTITLE5=You Can't Always Get What You Want
TTITLE6=19th Nervous Breakdown
TTITLE7=Under My Thumb
TTITLE8=Not Fade Away
TTITLE9=Have You Seen Your Mother Baby?
TTITLE10=Sympathy For The Devil
TTITLE11=Mother's Little Helper
TTITLE12=She's A Rainbow
TTITLE13=Get Off Of My Cloud
TTITLE14=Wild Horses
TTITLE15=Ruby Tuesday
TTITLE16=Paint it, Black
TTITLE17=Honky Tonk Women
TTITLE18=It's All Over Now
TTITLE19=Let's Spend The Night Together
EXTD=YEAR: 2002
EXTT0=
EXTT1=
EXTT2=
EXTT3=
EXTT4=
EXTT5=
EXTT6=
EXTT7=
EXTT8=
EXTT9=
EXTT10=
EXTT11=
EXTT12=
EXTT13=
EXTT14=
EXTT15=
EXTT16=
EXTT17=
EXTT18=
EXTT19=
PLAYORDER=
